<svg width="46" height="17" viewBox="0 0 46 17" fill="none" xmlns="http://www.w3.org/2000/svg">
<path opacity="0.1" d="M8.5 1.41669C5.1 1.41669 2.125 2.90419 0 5.24169L8.5 15.5834L17 5.24169C14.875 2.90419 11.9 1.41669 8.5 1.41669Z" fill="#1D1B20"/>
<path d="M31.5833 1.41669L17.4166 15.5834H31.5833V1.41669Z" fill="#1D1B20"/>
<path opacity="0.3" d="M43.5 1H40.5V2.5H39C38.4477 2.5 38 3.00368 38 3.625V14.875C38 15.4963 38.4477 16 39 16H45C45.5523 16 46 15.4963 46 14.875V3.625C46 3.00368 45.5523 2.5 45 2.5H43.5V1Z" fill="#1D1B20"/>
<path d="M38 9C38 9.58333 38 14.3667 38 14.95C38 15.5299 38.4477 16 39 16H45C45.5523 16 46 15.5299 46 14.95C46 14.3667 46 9.58333 46 9H38Z" fill="#1D1B20"/>
</svg>
